<svg width="2151" height="402" viewBox="0 0 2151 402" fill="none" xmlns="http://www.w3.org/2000/svg">
<g clip-path="url(#clip0_4599_248)">
<path d="M647.495 399.637C625.557 399.637 605.295 394.764 586.708 385.02C568.121 375.275 553.191 361.267 541.917 342.996C530.948 324.725 525.463 303.257 525.463 278.591C525.463 253.925 530.948 232.456 541.917 214.185C553.191 195.914 568.121 181.906 586.708 172.161C605.295 162.417 625.557 157.545 647.495 157.545C663.644 157.545 677.508 159.676 689.087 163.939C700.97 167.898 711.939 173.075 721.994 179.47C728.088 183.429 731.135 188.758 731.135 195.457C731.135 200.025 729.307 204.288 725.651 208.247C722.299 211.901 718.338 213.728 713.767 213.728C710.416 213.728 707.064 212.815 703.712 210.988C693.657 205.811 684.973 202.157 677.661 200.025C670.653 197.589 661.816 196.371 651.152 196.371C624.948 196.371 604.381 203.984 589.45 219.21C574.52 234.131 567.055 253.925 567.055 278.591C567.055 303.257 574.52 323.203 589.45 338.428C604.381 353.35 624.948 360.811 651.152 360.811C661.816 360.811 670.653 359.745 677.661 357.613C684.973 355.177 693.657 351.37 703.712 346.194C707.064 344.367 710.416 343.453 713.767 343.453C718.338 343.453 722.299 345.432 725.651 349.391C729.307 353.045 731.135 357.156 731.135 361.724C731.135 368.424 728.088 373.753 721.994 377.711C711.939 384.106 700.97 389.435 689.087 393.699C677.508 397.657 663.644 399.637 647.495 399.637Z" fill="#20374B"/>
<path d="M876.613 399.637C839.439 399.637 810.34 389.131 789.316 368.119C768.597 346.803 758.237 316.96 758.237 278.591C758.237 256.97 762.198 237.024 770.12 218.753C778.042 200.482 790.23 185.713 806.684 174.445C823.138 163.178 843.4 157.545 867.472 157.545C890.019 157.545 909.52 162.874 925.974 173.532C942.428 183.885 954.92 197.893 963.452 215.555C971.984 232.913 976.249 251.945 976.249 272.653C976.249 278.438 974.269 283.311 970.308 287.269C966.651 291.228 961.624 293.208 955.225 293.208H800.285C802.723 314.524 810.645 331.12 824.052 342.996C837.459 354.872 856.198 360.811 880.269 360.811C893.066 360.811 904.188 359.592 913.633 357.156C923.384 354.72 932.83 351.218 941.971 346.65C944.408 345.432 947.15 344.823 950.197 344.823C955.073 344.823 959.338 346.498 962.995 349.848C966.651 353.198 968.479 357.461 968.479 362.638C968.479 369.337 964.518 374.971 956.596 379.538C944.713 386.238 932.982 391.262 921.403 394.612C909.825 397.962 894.895 399.637 876.613 399.637ZM935.115 259.406C934.201 244.485 930.24 231.999 923.232 221.95C916.528 211.901 908.149 204.593 898.094 200.025C888.039 195.153 877.831 192.716 867.472 192.716C857.112 192.716 846.904 195.153 836.849 200.025C826.794 204.593 818.415 211.901 811.712 221.95C805.008 231.999 801.199 244.485 800.285 259.406H935.115Z" fill="#20374B"/>
<path d="M1042.71 397.353C1036.92 397.353 1032.04 395.373 1028.08 391.415C1024.12 387.456 1022.14 382.584 1022.14 376.798V80.3492C1022.14 74.5634 1024.12 69.6911 1028.08 65.7324C1032.04 61.4691 1036.92 59.3375 1042.71 59.3375C1048.8 59.3375 1053.83 61.3169 1057.79 65.2756C1061.75 69.2343 1063.73 74.2589 1063.73 80.3492V376.798C1063.73 382.584 1061.6 387.456 1057.33 391.415C1053.37 395.373 1048.5 397.353 1042.71 397.353Z" fill="#20374B"/>
<path d="M1231.02 399.637C1193.85 399.637 1164.75 389.131 1143.73 368.119C1123.01 346.803 1112.65 316.96 1112.65 278.591C1112.65 256.97 1116.61 237.024 1124.53 218.753C1132.45 200.482 1144.64 185.713 1161.09 174.445C1177.55 163.178 1197.81 157.545 1221.88 157.545C1244.43 157.545 1263.93 162.874 1280.38 173.532C1296.84 183.885 1309.33 197.893 1317.86 215.555C1326.39 232.913 1330.66 251.945 1330.66 272.653C1330.66 278.438 1328.68 283.311 1324.72 287.269C1321.06 291.228 1316.03 293.208 1309.63 293.208H1154.69C1157.13 314.524 1165.05 331.12 1178.46 342.996C1191.87 354.872 1210.61 360.811 1234.68 360.811C1247.48 360.811 1258.6 359.592 1268.04 357.156C1277.79 354.72 1287.24 351.218 1296.38 346.65C1298.82 345.432 1301.56 344.823 1304.61 344.823C1309.48 344.823 1313.75 346.498 1317.4 349.848C1321.06 353.198 1322.89 357.461 1322.89 362.638C1322.89 369.337 1318.93 374.971 1311.01 379.538C1299.12 386.238 1287.39 391.262 1275.81 394.612C1264.23 397.962 1249.3 399.637 1231.02 399.637ZM1289.52 259.406C1288.61 244.485 1284.65 231.999 1277.64 221.95C1270.94 211.901 1262.56 204.593 1252.5 200.025C1242.45 195.153 1232.24 192.716 1221.88 192.716C1211.52 192.716 1201.31 195.153 1191.26 200.025C1181.2 204.593 1172.82 211.901 1166.12 221.95C1159.42 231.999 1155.61 244.485 1154.69 259.406H1289.52Z" fill="#20374B"/>
<path d="M1397.12 397.353C1391.33 397.353 1386.45 395.373 1382.49 391.415C1378.53 387.456 1376.55 382.584 1376.55 376.798V180.84C1376.55 175.054 1378.53 170.182 1382.49 166.223C1386.45 161.96 1391.33 159.828 1397.12 159.828C1402.91 159.828 1407.78 161.96 1411.74 166.223C1416.01 170.182 1418.14 175.054 1418.14 180.84V200.482C1439.47 171.857 1463.39 157.545 1489.9 157.545H1492.18C1497.97 157.545 1502.69 159.524 1506.35 163.483C1510.31 167.441 1512.29 172.314 1512.29 178.1C1512.29 183.885 1510.31 188.605 1506.35 192.26C1502.39 195.914 1497.36 197.741 1491.27 197.741H1488.98C1474.36 197.741 1460.95 201.395 1448.76 208.704C1436.57 215.708 1426.37 225.452 1418.14 237.937V376.798C1418.14 382.584 1416.01 387.456 1411.74 391.415C1407.78 395.373 1402.91 397.353 1397.12 397.353Z" fill="#20374B"/>
<path d="M1601.79 399.637C1588.38 399.637 1575.89 396.896 1564.31 391.415C1553.04 385.933 1544.05 378.016 1537.34 367.662C1530.64 357.004 1527.29 344.823 1527.29 331.12C1527.29 308.586 1536.13 290.619 1553.8 277.22C1571.78 263.821 1597.98 257.122 1632.41 257.122H1687.71V253.468C1687.71 233.37 1682.69 218.905 1672.63 210.074C1662.88 201.243 1647.49 196.827 1626.47 196.827C1614.89 196.827 1604.53 197.741 1595.39 199.568C1586.55 201.395 1576.65 204.136 1565.68 207.79C1563.24 208.399 1561.26 208.704 1559.74 208.704C1555.17 208.704 1551.21 207.029 1547.86 203.679C1544.51 200.329 1542.83 196.218 1542.83 191.346C1542.83 183.124 1546.79 177.338 1554.71 173.989C1580.61 163.026 1606.97 157.545 1633.78 157.545C1654.81 157.545 1672.48 161.808 1686.8 170.334C1701.43 178.861 1712.09 189.976 1718.79 203.679C1725.8 217.078 1729.31 231.695 1729.31 247.53V376.798C1729.31 382.584 1727.17 387.456 1722.91 391.415C1718.95 395.373 1714.07 397.353 1708.28 397.353C1702.49 397.353 1697.62 395.373 1693.66 391.415C1689.69 387.456 1687.71 382.584 1687.71 376.798V364.922C1665.17 388.065 1636.52 399.637 1601.79 399.637ZM1617.33 363.094C1630.73 363.094 1643.68 359.897 1656.18 353.502C1668.67 346.803 1679.18 338.581 1687.71 328.836V290.467H1637.9C1591.89 290.467 1568.88 302.495 1568.88 326.552C1568.88 337.515 1572.54 346.346 1579.85 353.045C1587.47 359.745 1599.96 363.094 1617.33 363.094Z" fill="#20374B"/>
<path d="M1864.96 399.637C1820.47 399.637 1798.23 379.538 1798.23 339.342V197.741H1765.78C1763.34 197.741 1761.21 196.98 1759.38 195.457C1757.86 193.63 1757.1 191.498 1757.1 189.062C1757.1 186.017 1758.47 183.429 1761.21 181.297L1823.37 120.546C1826.11 117.805 1828.7 116.435 1831.14 116.435C1833.58 116.435 1835.56 117.348 1837.08 119.175C1838.91 121.002 1839.82 123.134 1839.82 125.57V162.112H1891.47C1896.65 162.112 1900.91 163.787 1904.27 167.137C1907.62 170.487 1909.29 174.75 1909.29 179.927C1909.29 184.799 1907.62 189.062 1904.27 192.716C1900.91 196.066 1896.65 197.741 1891.47 197.741H1839.82V335.688C1839.82 347.564 1842.56 355.177 1848.05 358.527C1853.84 361.572 1861 363.094 1869.53 363.094C1875.62 363.094 1881.72 362.181 1887.81 360.354C1889.03 360.049 1890.25 359.745 1891.47 359.44C1892.99 359.136 1894.82 358.983 1896.95 358.983C1901.22 358.983 1905.03 360.658 1908.38 364.008C1911.73 367.053 1913.41 370.86 1913.41 375.427C1913.41 382.431 1909.9 387.76 1902.89 391.415C1891.01 396.896 1878.37 399.637 1864.96 399.637Z" fill="#20374B"/>
<path d="M2050.98 399.637C2013.81 399.637 1984.71 389.131 1963.68 368.119C1942.96 346.803 1932.6 316.96 1932.6 278.591C1932.6 256.97 1936.56 237.024 1944.49 218.753C1952.41 200.482 1964.6 185.713 1981.05 174.445C1997.5 163.178 2017.77 157.545 2041.84 157.545C2064.39 157.545 2083.89 162.874 2100.34 173.532C2116.79 183.885 2129.29 197.893 2137.82 215.555C2146.35 232.913 2150.62 251.945 2150.62 272.653C2150.62 278.438 2148.63 283.311 2144.67 287.269C2141.02 291.228 2135.99 293.208 2129.59 293.208H1974.65C1977.09 314.524 1985.01 331.12 1998.42 342.996C2011.82 354.872 2030.56 360.811 2054.63 360.811C2067.43 360.811 2078.55 359.592 2088 357.156C2097.75 354.72 2107.2 351.218 2116.34 346.65C2118.77 345.432 2121.52 344.823 2124.56 344.823C2129.44 344.823 2133.7 346.498 2137.36 349.848C2141.02 353.198 2142.85 357.461 2142.85 362.638C2142.85 369.337 2138.88 374.971 2130.96 379.538C2119.08 386.238 2107.35 391.262 2095.77 394.612C2084.19 397.962 2069.26 399.637 2050.98 399.637ZM2109.48 259.406C2108.57 244.485 2104.61 231.999 2097.6 221.95C2090.89 211.901 2082.51 204.593 2072.46 200.025C2062.4 195.153 2052.2 192.716 2041.84 192.716C2031.48 192.716 2021.27 195.153 2011.22 200.025C2001.16 204.593 1992.78 211.901 1986.08 221.95C1979.37 231.999 1975.57 244.485 1974.65 259.406H2109.48Z" fill="#20374B"/>
<path d="M74.499 399.637C61.0922 399.637 48.5995 396.896 37.021 391.415C25.7471 385.933 16.7585 378.016 10.0551 367.662C3.35171 357.004 0 344.823 0 331.12C0 308.586 8.83629 290.619 26.5089 277.22C44.4861 263.822 70.6903 257.122 105.121 257.122H160.424V253.468C160.424 233.37 155.397 218.905 145.342 210.074C135.591 201.243 120.204 196.828 99.1796 196.828C87.6011 196.828 77.2413 197.741 68.1003 199.568C59.264 201.395 49.3613 204.136 38.3921 207.79C35.9545 208.399 33.974 208.704 32.4505 208.704C27.88 208.704 23.9189 207.029 20.5672 203.679C17.2155 200.329 15.5397 196.219 15.5397 191.346C15.5397 183.124 19.5008 177.338 27.4229 173.989C53.3224 163.026 79.6789 157.545 106.492 157.545C127.517 157.545 145.189 161.808 159.51 170.334C174.136 178.861 184.8 189.976 191.503 203.679C198.512 217.078 202.016 231.695 202.016 247.53V376.798C202.016 382.584 199.883 387.456 195.617 391.415C191.656 395.373 186.781 397.353 180.991 397.353C175.202 397.353 170.327 395.373 166.366 391.415C162.405 387.456 160.424 382.584 160.424 376.798V364.922C137.876 388.065 109.235 399.637 74.499 399.637ZM90.0387 363.094C103.445 363.094 116.395 359.897 128.888 353.502C141.38 346.803 151.893 338.581 160.424 328.836V290.467H110.606C64.5963 290.467 41.5915 302.495 41.5915 326.552C41.5915 337.515 45.2478 346.346 52.5606 353.045C60.1781 359.745 72.6708 363.094 90.0387 363.094Z" fill="#20374B"/>
</g>
<path d="M483.88 243.426L481.527 249.811C481.458 249.999 481.332 250.161 481.168 250.275C481.004 250.389 480.808 250.451 480.608 250.451C480.408 250.451 480.212 250.389 480.048 250.275C479.884 250.161 479.758 249.999 479.689 249.811L477.335 243.426C477.286 243.291 477.207 243.168 477.106 243.067C477.004 242.965 476.882 242.887 476.747 242.837L470.361 240.484C470.174 240.414 470.012 240.289 469.898 240.125C469.783 239.96 469.722 239.765 469.722 239.565C469.722 239.365 469.783 239.169 469.898 239.005C470.012 238.841 470.174 238.715 470.361 238.645L476.747 236.292C476.882 236.243 477.004 236.164 477.106 236.063C477.207 235.961 477.286 235.839 477.335 235.704L479.689 229.318C479.758 229.131 479.884 228.969 480.048 228.854C480.212 228.74 480.408 228.679 480.608 228.679C480.808 228.679 481.004 228.74 481.168 228.854C481.332 228.969 481.458 229.131 481.527 229.318L483.88 235.704C483.93 235.839 484.008 235.961 484.11 236.063C484.212 236.164 484.334 236.243 484.469 236.292L490.854 238.645C491.042 238.715 491.204 238.841 491.318 239.005C491.433 239.169 491.494 239.365 491.494 239.565C491.494 239.765 491.433 239.96 491.318 240.125C491.204 240.289 491.042 240.414 490.854 240.484L484.469 242.837C484.334 242.887 484.212 242.965 484.11 243.067C484.008 243.168 483.93 243.291 483.88 243.426Z" fill="#EECD23"/>
<path d="M357.534 154.392L354.266 163.261C354.169 163.522 353.995 163.747 353.767 163.906C353.539 164.064 353.267 164.149 352.989 164.149C352.711 164.149 352.44 164.064 352.212 163.906C351.983 163.747 351.809 163.522 351.713 163.261L348.444 154.392C348.375 154.205 348.266 154.035 348.125 153.894C347.984 153.753 347.814 153.644 347.627 153.575L338.758 150.307C338.497 150.21 338.273 150.036 338.114 149.808C337.955 149.58 337.87 149.308 337.87 149.03C337.87 148.752 337.955 148.481 338.114 148.253C338.273 148.024 338.497 147.85 338.758 147.754L347.627 144.485C347.814 144.416 347.984 144.307 348.125 144.166C348.266 144.025 348.375 143.855 348.444 143.668L351.713 134.799C351.809 134.538 351.983 134.314 352.212 134.155C352.44 133.996 352.711 133.911 352.989 133.911C353.267 133.911 353.539 133.996 353.767 134.155C353.995 134.314 354.169 134.538 354.266 134.799L357.534 143.668C357.603 143.855 357.712 144.025 357.853 144.166C357.994 144.307 358.164 144.416 358.352 144.485L367.221 147.754C367.481 147.85 367.706 148.024 367.865 148.253C368.023 148.481 368.108 148.752 368.108 149.03C368.108 149.308 368.023 149.58 367.865 149.808C367.706 150.036 367.481 150.21 367.221 150.307L358.352 153.575C358.164 153.644 357.994 153.753 357.853 153.894C357.712 154.035 357.603 154.205 357.534 154.392Z" fill="#EECD23"/>
<path d="M267.785 287.436L263.34 299.498C263.209 299.852 262.972 300.158 262.662 300.374C262.351 300.59 261.982 300.706 261.604 300.706C261.226 300.706 260.857 300.59 260.547 300.374C260.236 300.158 259.999 299.852 259.868 299.498L255.423 287.436C255.329 287.182 255.181 286.95 254.989 286.758C254.797 286.567 254.566 286.419 254.311 286.325L242.25 281.88C241.895 281.748 241.589 281.511 241.374 281.201C241.158 280.891 241.042 280.522 241.042 280.143C241.042 279.765 241.158 279.396 241.374 279.086C241.589 278.776 241.895 278.539 242.25 278.407L254.311 273.962C254.566 273.868 254.797 273.72 254.989 273.528C255.181 273.337 255.329 273.105 255.423 272.851L259.868 260.789C259.999 260.435 260.236 260.129 260.547 259.913C260.857 259.697 261.226 259.581 261.604 259.581C261.982 259.581 262.351 259.697 262.662 259.913C262.972 260.129 263.209 260.435 263.34 260.789L267.785 272.851C267.879 273.105 268.027 273.337 268.219 273.528C268.411 273.72 268.642 273.868 268.897 273.962L280.959 278.407C281.313 278.539 281.619 278.776 281.835 279.086C282.05 279.396 282.166 279.765 282.166 280.143C282.166 280.522 282.05 280.891 281.835 281.201C281.619 281.511 281.313 281.748 280.959 281.88L268.897 286.325C268.642 286.419 268.411 286.567 268.219 286.758C268.027 286.95 267.879 287.182 267.785 287.436Z" fill="#EECD23"/>
<path d="M377.598 223.129C431.34 143.068 559.858 -36.4734 604.574 6.56944C658.116 58.109 467.566 222.519 410.066 269.996C415.155 277.575 417.995 281.939 418.007 281.957L408.652 287.455V286.99H354.275C333.176 269.901 300.548 242.617 267.712 211.799C239.012 223.93 208.662 233.937 190.065 231.955C146.449 227.305 223.973 163.861 267.533 146.56C299.128 134.011 321.108 149.962 332.612 162.641L332.642 162.631C332.717 162.728 332.793 162.826 332.869 162.924C336.23 166.665 338.672 170.098 340.171 172.397C353.85 190.279 366.57 207.667 377.598 223.129Z" fill="#9CF4BE"/>
<path d="M314.889 282.474C315.401 281.962 316.231 281.962 316.743 282.474L352.342 318.088C352.854 318.6 352.854 319.431 352.342 319.943L278.363 393.953C268.02 404.3 251.252 404.3 240.91 393.953C230.567 383.607 230.567 366.831 240.91 356.484L314.889 282.474Z" fill="#2FCB6A"/>
<path d="M503.062 356.484C513.405 366.831 513.405 383.606 503.062 393.953C492.72 404.299 475.951 404.299 465.609 393.953L391.63 319.942C391.118 319.43 391.118 318.6 391.63 318.087L427.229 282.473C427.741 281.961 428.571 281.961 429.083 282.473L503.062 356.484Z" fill="#2FCB6A"/>
<path d="M378.444 246.692C420.217 188.631 544.336 21.1131 568.529 45.866C599.936 78.0021 437.034 227.834 393.368 266.928H352.625C333.603 249.84 309.39 227.465 285.718 203.845C301.821 196.443 316.364 189.032 326.624 183.62C344.966 206.203 362.226 228.493 376.009 246.655C376.637 247.483 377.837 247.535 378.444 246.692Z" fill="#2FCB6A"/>
<path d="M423.862 355.196C405.344 349.14 374.926 315.966 382.49 274.767L413.77 271.28C413.77 295.687 425.623 321.836 458.766 342.895C446.901 342.895 427.72 350.149 423.862 355.196Z" fill="#F06F82"/>
<path d="M330.141 355.196C348.659 349.14 379.077 315.966 371.513 274.767L340.233 271.28C340.233 295.687 328.38 321.836 295.237 342.895C307.102 342.895 326.283 350.149 330.141 355.196Z" fill="#F06F82"/>
<path d="M388.077 252.32L451.47 223.109C456.145 220.955 461.479 224.37 461.479 229.518V303.879C461.479 308.643 456.856 312.038 452.31 310.612L388.077 290.46V252.32Z" fill="#FDBFC9"/>
<path d="M366.487 252.32L303.094 223.109C298.419 220.955 293.085 224.37 293.085 229.518V303.879C293.085 308.643 297.708 312.038 302.254 310.612L366.487 290.46V252.32Z" fill="#FDBFC9"/>
<rect x="362.583" y="250.815" width="27.2149" height="40.8224" rx="4.11599" fill="#F06F82"/>
<defs>
<clipPath id="clip0_4599_248">
<rect width="2150.61" height="340.691" fill="white" transform="translate(0 59.3375)"/>
</clipPath>
</defs>
</svg>
